<svg width="88" height="88" viewBox="0 0 88 88" fill="none" xmlns="http://www.w3.org/2000/svg">
<path d="M28.3579 98.4816C28.8044 96.6946 29.1478 95.3544 29.3195 94.5639C27.465 85.354 25.8165 76.9689 25.4731 75.3193C25.4387 75.3193 25.4044 75.3193 25.3701 75.3193C25.3701 75.3193 22.0044 79.0652 18.3984 89.581C21.7984 93.2581 25.1983 96.1791 28.3579 98.4816Z" fill="#393D45"/>
<path d="M26.7406 39.8536C28.2173 41.7781 26.7406 43.2558 26.7406 43.2558C26.8092 44.0805 26.9123 44.9053 27.0496 45.6957C27.1527 45.7644 27.2214 45.8675 27.29 45.9363C28.8355 44.3211 27.0153 39.4756 26.7062 38.7539C26.7062 39.0976 26.6719 39.4412 26.6719 39.7849C26.7062 39.8192 26.7406 39.8536 26.7406 39.8536Z" fill="#F0A98F"/>
<path d="M26.7406 39.8539C26.7406 39.8539 26.7062 39.8195 26.7062 39.7852C26.7062 40.3006 26.6719 40.8161 26.6719 41.3316C26.6719 41.9845 26.7062 42.6031 26.7406 43.2217C26.7406 43.2561 28.2173 41.7783 26.7406 39.8539Z" fill="#D8826C"/>
<path d="M26.6379 46.3499C26.2601 46.4874 25.8136 46.5218 25.3672 46.4874C25.3672 46.5218 25.3672 46.5218 25.3672 46.5561C25.3672 47.1403 25.848 47.6215 26.4318 47.6215C26.8096 47.6215 27.153 47.4153 27.3247 47.106C27.256 46.7967 27.1874 46.453 27.1187 46.1094C26.9813 46.2125 26.8096 46.2812 26.6379 46.3499Z" fill="white"/>
<path d="M27.2915 45.9355C27.2226 46.0043 27.1881 46.0386 27.1191 46.1074C27.1881 46.451 27.257 46.7603 27.326 47.104C27.4294 46.9321 27.4639 46.7603 27.4639 46.5541C27.4639 46.3136 27.3949 46.1074 27.2915 45.9355Z" fill="white"/>
<path d="M26.6379 46.3474C26.8096 46.2787 26.9813 46.21 27.1187 46.1069C27.0843 45.9694 27.05 45.8319 27.05 45.6945C26.8783 45.557 26.6722 45.4883 26.4318 45.4883C25.8823 45.4883 25.4015 45.935 25.3672 46.4849C25.8136 46.5192 26.2258 46.4849 26.6379 46.3474Z" fill="white"/>
<path d="M27.0547 45.6611C27.0892 45.7986 27.0892 45.9361 27.1236 46.0735C27.1926 46.0392 27.2615 45.9704 27.296 45.9017C27.227 45.833 27.1236 45.7299 27.0547 45.6611Z" fill="white"/>
<path d="M26.6712 39.7863C26.2591 39.2709 23.1682 35.7656 22.344 37.6213C21.4511 39.6145 21.9662 41.9514 21.9662 41.9514C21.9662 41.9514 22.344 39.2709 24.4389 40.508C24.4389 40.508 22.9278 44.9068 26.6712 43.2572C26.6368 42.6387 26.6025 42.0201 26.6025 41.3672C26.6712 40.8517 26.6712 40.3018 26.6712 39.7863Z" fill="#D8826C"/>
<path d="M24.9551 38.0313C25.2298 37.8939 25.5389 37.7908 25.848 37.6533C26.3631 38.2032 26.6722 38.6499 26.6722 38.6499C26.6722 38.6499 26.6722 38.6843 26.7066 38.753C26.6722 39.0967 26.6722 39.4403 26.6722 39.784C26.5005 39.5778 25.745 38.7186 24.9551 38.0313Z" fill="#F0A98F"/>
<path d="M27.0519 45.6594C26.8802 45.5219 26.6742 45.4532 26.4338 45.4532C25.8843 45.4532 25.4035 45.8999 25.3691 46.4498C22.6217 46.2092 19.3591 42.8071 20.3551 38.3739C21.1106 34.9374 22.8621 35.2467 24.3388 36.2776C23.5833 36.6557 22.8964 37.0337 22.3126 37.3773C21.1793 38.0646 21.351 38.5801 22.0379 38.7176C21.6944 40.3671 22.0379 41.9479 22.0379 41.9479C22.0379 41.9479 22.3813 39.2674 24.5106 40.5046C24.5106 40.5046 22.9995 44.9033 26.7429 43.2538C26.7772 44.0786 26.8802 44.9033 27.0519 45.6594Z" fill="#F0A98F"/>
<path d="M25.8493 37.6547C25.5402 37.7922 25.2311 37.8953 24.9564 38.0327C23.9604 37.208 22.8271 36.5894 22.3806 37.6203C22.2089 37.9984 22.1059 38.3764 22.0372 38.7544C21.3504 38.6169 21.213 38.1015 22.312 37.4141C22.8958 37.0705 23.5827 36.6925 24.3382 36.3145C24.8877 36.6925 25.4372 37.208 25.8493 37.6547Z" fill="#020000"/>
<path d="M69.0895 39.9561C69.1238 43.8393 65.9299 46.5886 63.4229 46.4855C63.2512 46.7948 62.9078 47.0353 62.4956 47.0353C62.3239 47.0353 62.1522 47.001 61.9805 46.8979C60.6755 55.2486 56.2452 60.3004 49.4453 61.4688L49.7544 65.6957L50.2352 71.9846C54.9745 72.1908 59.7482 73.0155 63.938 74.8369C63.9724 74.8025 64.0067 74.8025 64.0067 74.7682C64.0067 74.7682 64.0411 74.8025 64.1441 74.9056C64.2471 74.94 64.3502 75.0087 64.4532 75.0431L64.4188 75.2493C65.3804 76.5208 67.9905 80.4385 70.8066 88.4456C73.348 85.5933 75.8894 82.3286 78.3277 78.5827C78.5338 76.9332 78.6368 75.2837 78.6712 73.6341C78.8085 60.8846 74.6187 50.9873 69.0895 39.9561Z" fill="#C0440C"/>
<path d="M25.4736 75.3174C25.4392 75.1112 25.4049 75.0081 25.4049 75.0081C25.4049 75.0081 31.7927 73.118 40.035 72.2932L40.5501 65.6607L40.8936 61.0558C34.4714 59.3375 29.1139 54.4232 27.2938 47.0691C27.122 47.3783 26.7786 47.5845 26.4008 47.5845C25.817 47.5845 25.3362 47.1034 25.3362 46.5192C25.3362 46.4848 25.3362 46.4848 25.3362 46.4505C22.5888 46.2099 19.3262 42.7734 20.3221 38.3746C21.7302 31.9483 26.6412 38.6495 26.6412 38.6495C26.6412 38.6495 26.6412 38.6839 26.6756 38.7526C26.7443 37.4124 26.8473 36.0378 27.019 34.7319C29.1483 33.9758 31.2432 32.9105 33.2694 31.5703C32.8573 31.7421 32.4452 31.9139 32.0674 32.1545C32.0674 32.1545 33.5785 30.0926 36.2229 29.474C41.0653 25.6938 45.4955 20.6421 48.9298 15.6247C50.5439 18.8894 52.5015 21.8792 54.6307 24.4223C56.5196 26.6904 58.7519 28.6492 61.1559 30.2987C61.8428 33.1511 62.2205 36.1752 62.3236 39.2337C62.4609 38.8901 62.5296 38.6839 62.5296 38.6839C62.5296 38.6839 65.3801 34.8006 67.3376 35.7628C65.7579 30.2988 64.4528 21.2263 62.2549 16.1746C59.164 9.06095 53.3944 7.7207 48.1743 8.27055C46.8692 7.85816 45.3581 7.75507 43.8814 7.7207C37.4593 7.7207 30.8998 9.92009 27.1907 15.0062C17.8838 27.687 21.112 45.0071 15.4111 59.1657C13.4192 64.0799 9.9849 69.2691 7.20312 74.527C10.8091 80.6096 14.6212 85.5583 18.3646 89.6134C21.9706 79.0976 25.3362 75.3518 25.3362 75.3518C25.4049 75.3174 25.4392 75.3174 25.4736 75.3174Z" fill="#C0440C"/>
<path d="M64.488 75.0427C64.3846 75.0084 64.2811 74.9396 64.1777 74.9053C64.2467 74.974 64.3156 75.1115 64.4535 75.2489L64.488 75.0427Z" fill="#393D45"/>
<path d="M59.9553 93.3274C59.9553 92.4683 60.8138 77.0039 63.9734 74.8045C59.7836 72.9831 55.0099 72.1927 50.2706 71.9521V72.0209C50.9231 75.8698 45.7716 76.1791 45.7716 76.1791C43.505 76.1791 39.9677 75.4918 39.9677 73.2237L40.0364 72.2958C31.7597 73.1549 25.4062 75.0107 25.4062 75.0107C25.4062 75.0107 25.4406 75.1138 25.4749 75.32C28.6001 75.6636 29.4587 93.0181 29.4587 93.8773C29.4587 93.946 29.4244 94.1865 29.3213 94.5646C29.6648 96.3172 30.0426 98.1042 30.386 99.8912C35.8122 103.534 40.3454 105.321 42.6121 106.077C43.5393 106.386 44.5353 106.386 45.4625 106.077C48.0039 105.218 53.2927 103.122 59.5432 98.6197L60.2987 94.9769C60.0926 93.9803 59.9553 93.3961 59.9553 93.3274Z" fill="#393D45"/>
<path d="M64.0406 74.7344C64.0056 74.769 63.9707 74.769 63.9707 74.8037C64.0406 74.8383 64.1105 74.873 64.1804 74.9076C64.0755 74.8037 64.0406 74.7344 64.0406 74.7344Z" fill="#393D45"/>
<path d="M60.332 94.9759C60.5037 95.6632 60.7098 96.5567 60.9846 97.5877C64.1441 95.1821 67.4754 92.1579 70.841 88.4121C68.0249 80.4394 65.4148 76.5217 64.4532 75.2158L60.332 94.9759Z" fill="#393D45"/>
<path d="M59.9512 93.3247C59.9512 93.4278 60.0885 94.012 60.3289 95.0086L64.4501 75.2485C64.3471 75.111 64.244 75.008 64.1754 74.9049C64.1067 74.8705 64.038 74.8361 63.9693 74.8018C60.8097 76.9668 59.9512 92.4312 59.9512 93.3247Z" fill="#393D45"/>
<path d="M25.4727 75.3193C25.8161 76.9689 27.4645 85.3884 29.3191 94.5639C29.4221 94.1516 29.4564 93.911 29.4564 93.8766C29.4564 93.0175 28.5979 75.663 25.4727 75.3193Z" fill="#393D45"/>
<path d="M50.2702 71.9506L49.7894 65.6618L49.4803 61.4348C48.5874 61.6067 47.6601 61.6754 46.6642 61.7098C44.7066 61.7441 42.7491 61.5036 40.9289 61.0225L40.5855 65.6274L40.0703 72.2599C43.2642 71.985 46.7672 71.8132 50.2702 71.9506Z" fill="#D8826C"/>
<path d="M45.8023 76.2104C45.8023 76.2104 50.9537 75.8667 50.3012 72.0522V71.9834C46.7982 71.8116 43.2952 71.9834 40.067 72.3271L39.9983 73.2549C39.964 75.5231 43.5013 76.2104 45.8023 76.2104Z" fill="#D8826C"/>
<path d="M45.1813 54.9401C46.3146 54.9401 47.3449 55.3869 48.1004 56.1429C48.856 56.899 49.3024 57.9299 49.3024 59.064L49.4741 61.4696C56.2397 60.3011 60.6699 55.2494 62.0093 46.8986C61.6659 46.7268 61.4598 46.3832 61.4598 45.9708C61.4598 45.7646 61.5285 45.5584 61.6315 45.3866C60.876 43.7027 61.9063 40.5067 62.3871 39.2008C62.2841 36.1423 61.9063 33.1181 61.2194 30.2658C58.8154 28.6163 56.6175 26.6574 54.6943 24.3893C52.565 21.8463 50.6075 18.8221 48.9933 15.5918C45.559 20.6091 41.1288 25.6608 36.2864 29.441C38.0723 29.0287 40.3732 29.2348 43.0863 31.2624C43.0863 31.2624 38.4844 29.4067 33.3673 31.5373C31.3067 32.8776 29.2118 33.9429 27.1169 34.6989C26.9452 36.0392 26.8421 37.3794 26.7734 38.7197C27.0482 39.4414 28.9027 44.2869 27.3573 45.9021C27.4603 46.0739 27.529 46.2801 27.529 46.5206C27.529 46.7268 27.4603 46.8986 27.3916 47.0705C29.2118 54.4247 34.5349 59.3389 40.9914 61.0572L41.1288 59.064C41.0601 56.7959 42.9146 54.9401 45.1813 54.9401ZM61.2194 32.1215C61.2194 32.1215 56.5488 29.1318 50.7792 31.1937C50.8135 31.1593 55.8276 26.1763 61.2194 32.1215ZM49.165 45.5928C46.7267 49.4761 44.4944 45.6615 44.4944 45.6615L49.165 45.5928ZM36.6986 48.9262C34.0541 48.9262 31.9249 47.2423 31.9249 45.1804C31.9249 43.5652 33.2299 42.225 35.0157 41.6751C33.8481 40.8503 33.0582 39.4757 33.0582 37.9293C33.0582 37.8262 33.0582 37.6887 33.0582 37.5856C32.9552 37.7575 32.8521 37.8949 32.7148 38.0667C32.5774 38.2729 32.1996 38.2042 32.1996 37.9293C32.1996 35.1113 34.5006 32.3965 37.5228 32.7057C40.8884 33.0494 42.5712 36.0048 42.2965 39.2008C42.2621 39.407 42.0217 39.4414 41.9187 39.3039C41.5066 40.5754 40.5793 41.572 39.3773 42.1219C40.6136 42.8092 41.4035 43.9089 41.4035 45.1804C41.4035 46.3144 40.7854 47.311 39.7551 47.9983C41.0945 48.9262 46.4863 52.1222 52.0842 47.7922C51.26 47.1048 50.7105 46.2113 50.7105 45.1804C50.7105 43.8401 51.6034 42.7061 52.9428 42.0188C51.7064 41.4002 50.8135 40.2661 50.5044 38.9259C50.5044 39.029 50.4701 39.1321 50.4701 39.2352C50.4357 39.5101 50.0923 39.4757 50.058 39.2352C49.7489 36.0392 51.466 33.0838 54.8316 32.7745C57.8195 32.4652 60.1548 35.1801 60.1548 37.998C60.1548 38.2729 59.8114 38.3417 59.6396 38.1355C59.571 38.0667 59.5366 37.998 59.5023 37.9293C59.5023 37.9636 59.5023 37.9637 59.5023 37.998C59.5023 39.5788 58.678 40.9878 57.4417 41.8126C59.1245 42.3968 60.2922 43.7027 60.2922 45.2147C60.2922 47.2767 58.1629 48.9606 55.5185 48.9606C54.1791 48.9606 52.9771 48.5482 52.1185 47.8609C51.6721 48.5138 46.0742 56.0055 39.6864 48.1014C38.9308 48.6169 37.8662 48.9262 36.6986 48.9262Z" fill="#F0A98F"/>
<path d="M46.663 61.7458C47.6246 61.7114 48.5862 61.6427 49.4791 61.4708L49.3074 59.0653C49.3074 57.9312 48.861 56.9002 48.1054 56.1442C47.3499 55.3882 46.3196 54.9414 45.1863 54.9414C42.9196 54.9414 41.0651 56.7628 41.0651 59.0653L40.9277 61.0584C42.7823 61.5396 44.7055 61.7801 46.663 61.7458Z" fill="#F0A98F"/>
<path d="M69.0891 39.9572C69.0891 39.4417 69.0204 38.9263 68.9173 38.4108C68.5739 36.8643 68.0244 36.0739 67.4062 35.7646C67.7497 37.0018 68.1275 38.0328 68.5052 38.8232C68.7113 39.2012 68.883 39.5792 69.0891 39.9572Z" fill="#F0A98F"/>
<path d="M62.5278 39.855C62.5278 39.855 65.9965 35.6281 66.8894 37.6213C67.7823 39.6145 67.2328 41.9513 67.2328 41.9513C67.2328 41.9513 66.8894 39.2708 64.7601 40.508C64.7601 40.508 66.2712 44.9068 62.4935 43.2229C62.4935 43.2229 62.4248 43.1541 62.3561 43.051C62.3218 43.704 62.2874 44.3225 62.2188 44.9411C62.2874 44.9068 62.3905 44.9068 62.4935 44.9068C63.0773 44.9068 63.5581 45.3879 63.5581 45.9721C63.5581 46.1439 63.5238 46.3501 63.4208 46.4876C65.9278 46.5907 69.0873 43.8071 69.0873 39.9581C68.9156 39.5801 68.7096 39.2021 68.5035 38.8241C68.1257 38.0337 67.748 37.0027 67.4045 35.7656C65.4126 34.8033 62.5965 38.6866 62.5965 38.6866C62.5965 38.6866 62.4935 38.8928 62.3905 39.2365C62.3905 39.5114 62.4248 39.7863 62.4248 40.0612C62.4248 39.9925 62.4592 39.9238 62.5278 39.855Z" fill="#F0A98F"/>
<path d="M61.6034 45.385C61.7408 45.1788 61.9812 45.007 62.2216 44.9382C62.2903 44.3197 62.3246 43.7011 62.359 43.0481C62.0499 42.6358 61.3974 41.4673 62.3933 40.024C62.3933 39.7491 62.3933 39.4741 62.359 39.1992C61.8782 40.5051 60.8822 43.7354 61.6034 45.385Z" fill="#F0A98F"/>
<path d="M64.7634 40.5048C66.8926 39.2677 67.2361 41.9482 67.2361 41.9482C67.2361 41.9482 67.7512 39.6113 66.8926 37.6181C65.9997 35.6249 62.5311 39.8519 62.5311 39.8519C62.4967 39.9206 62.4281 39.9893 62.3937 40.0581C62.3937 40.5048 62.3937 40.9172 62.3937 41.364C62.3937 41.9482 62.3937 42.5324 62.3594 43.0822C62.4281 43.1853 62.4967 43.254 62.4967 43.254C66.2745 44.9036 64.7634 40.5048 64.7634 40.5048Z" fill="#D8826C"/>
<path d="M62.3947 40.0596C61.395 41.5029 62.05 42.6713 62.3602 43.0837C62.3947 42.5339 62.3947 41.9497 62.3947 41.3655C62.3947 40.9187 62.3947 40.472 62.3947 40.0596Z" fill="#D8826C"/>
<path d="M62.1167 46.0732C62.0824 46.3482 62.048 46.6231 62.0137 46.898C62.151 46.9667 62.3228 47.0355 62.5288 47.0355C62.9409 47.0355 63.2844 46.8293 63.4561 46.4856C63.1813 46.4856 62.9066 46.4169 62.6318 46.3482C62.4258 46.2794 62.2541 46.1763 62.1167 46.0732Z" fill="white"/>
<path d="M61.6001 45.3848C61.4967 45.5566 61.4277 45.7284 61.4277 45.969C61.4277 46.3814 61.6346 46.725 61.9793 46.8968C62.0137 46.6219 62.0482 46.347 62.0827 46.0721C61.9103 45.9002 61.738 45.6597 61.6001 45.3848Z" fill="white"/>
<path d="M62.4981 44.9053C62.395 44.9053 62.3263 44.9053 62.2233 44.9396C62.189 45.3177 62.1546 45.6957 62.0859 46.0737C62.2233 46.1768 62.395 46.2799 62.6011 46.3486C62.8415 46.4517 63.1162 46.4861 63.4253 46.4861C63.494 46.3486 63.5627 46.1424 63.5627 45.9706C63.5627 45.3864 63.0819 44.9053 62.4981 44.9053Z" fill="white"/>
<path d="M62.1213 46.0725C62.1557 45.6945 62.2247 45.3165 62.2592 44.9385C61.9834 45.0072 61.7766 45.179 61.6387 45.3852C61.7421 45.6602 61.9144 45.9007 62.1213 46.0725Z" fill="white"/>
<path d="M57.483 41.7785C58.7194 40.9537 59.5436 39.5791 59.5436 37.9639C59.5436 37.9296 59.5436 37.9296 59.5436 37.8952C58.4446 36.28 57.9982 34.7336 55.8346 34.115C55.5942 34.0463 55.3537 34.0119 55.1133 33.9775C55.4911 34.0463 55.8345 34.2181 56.1436 34.4587C56.5558 34.5618 56.8305 34.8367 56.8305 35.146C56.8305 35.1803 56.8305 35.1803 56.8305 35.2147C57.277 35.8676 57.586 36.7268 57.586 37.689C57.586 39.7509 56.2467 41.4348 54.5982 41.4348C52.9497 41.4348 51.6104 39.7509 51.6104 37.689C51.6104 36.2113 52.2972 34.9054 53.2932 34.3212C51.7134 35.1116 50.7861 37.1392 50.5801 38.9605C50.8892 40.3351 51.7821 41.4692 53.0184 42.0534C53.774 41.6754 54.6325 41.4692 55.5598 41.4692C56.2467 41.4692 56.8992 41.5723 57.483 41.7785Z" fill="white"/>
<path d="M53.2883 34.2864C52.2923 34.905 51.6055 36.1765 51.6055 37.6542C51.6055 39.7161 52.9448 41.4 54.5933 41.4C56.2418 41.4 57.5811 39.7161 57.5811 37.6542C57.5811 36.7263 57.3064 35.8328 56.8256 35.1799C56.7913 35.4548 56.4822 35.6954 56.1044 35.7985C56.4822 36.2796 56.6882 36.9325 56.6882 37.6542C56.6882 39.1319 55.7266 40.3347 54.559 40.3347C53.3913 40.3347 52.4297 39.1319 52.4297 37.6542C52.4297 36.1765 53.3913 34.9737 54.559 34.9737C54.5933 34.9737 54.6276 34.9737 54.662 34.9737C54.765 34.63 55.2115 34.3895 55.7266 34.3895C55.864 34.3895 56.0014 34.4238 56.1387 34.4238C55.8297 34.1833 55.4862 34.0115 55.1084 33.9427C54.4559 33.9084 53.8378 34.0458 53.2883 34.2864Z" fill="#7F5242"/>
<path d="M54.6628 35.1463C54.6628 35.1119 54.6628 35.0432 54.6971 35.0088C54.6628 35.0088 54.6284 35.0088 54.5941 35.0088C53.4264 35.0088 52.4648 36.2116 52.4648 37.6893C52.4648 39.167 53.4264 40.3698 54.5941 40.3698C55.7618 40.3698 56.7234 39.167 56.7234 37.6893C56.7234 36.9676 56.483 36.3147 56.1395 35.8336C56.0365 35.8679 55.8991 35.8679 55.7618 35.8679C55.1779 35.8679 54.6628 35.5586 54.6628 35.1463Z" fill="#400404"/>
<path d="M56.8607 35.216C56.8607 35.1816 56.8607 35.1816 56.8607 35.1473C56.8607 34.838 56.5516 34.5631 56.1738 34.46C56.4486 34.6662 56.689 34.9411 56.8607 35.216Z" fill="white"/>
<path d="M54.6973 35.0078C55.2811 35.0422 55.7962 35.3515 56.1397 35.8326C56.5518 35.7295 56.8265 35.489 56.8609 35.214C56.6548 34.9391 56.4144 34.6642 56.174 34.4924C56.0366 34.458 55.8993 34.458 55.7619 34.458C55.2467 34.4236 54.8003 34.6985 54.6973 35.0078Z" fill="white"/>
<path d="M54.7004 35.0088C54.7004 35.0432 54.666 35.1119 54.666 35.1463C54.666 35.5586 55.1468 35.8679 55.765 35.8679C55.9024 35.8679 56.0054 35.8679 56.1428 35.8336C55.7993 35.3524 55.2842 35.0432 54.7004 35.0088Z" fill="white"/>
<path d="M55.0065 33.4263C57.4792 33.4263 59.5054 35.4195 59.5397 37.8938C59.5741 37.9625 59.6428 38.0312 59.6771 38.1C59.8145 38.3062 60.1923 38.2374 60.1923 37.9625C60.1923 35.1445 57.8913 32.4297 54.8691 32.739C51.5035 33.0826 49.8207 36.0381 50.0954 39.1997C50.1298 39.4402 50.4732 39.4746 50.5075 39.1997C50.5075 39.0966 50.5075 38.9935 50.5419 38.8904C50.4732 38.5811 50.4389 38.2374 50.4389 37.9281C50.4732 35.4538 52.4994 33.4263 55.0065 33.4263Z" fill="#390A0A"/>
<path d="M53.2868 34.2878C53.6989 34.0473 54.1111 33.9098 54.5919 33.9098C54.7636 33.9098 54.9353 33.9442 55.107 33.9786C55.3474 34.0129 55.5878 34.0473 55.8282 34.116C57.9918 34.7346 58.4383 36.281 59.5372 37.8962C59.5029 35.4219 57.4767 33.4287 55.004 33.4287C52.4969 33.4287 50.4707 35.4563 50.4707 37.9649C50.4707 38.3086 50.505 38.6179 50.5737 38.9272C50.7798 37.1402 51.707 35.0782 53.2868 34.2878Z" fill="#390A0A"/>
<path d="M53.2871 34.2862C53.8366 34.0113 54.4204 33.9082 55.1073 33.9769C54.9356 33.9426 54.7639 33.9082 54.5921 33.9082C54.1457 33.9426 53.6992 34.08 53.2871 34.2862Z" fill="#390A0A"/>
<path d="M49.1706 45.5918L44.5 45.6605C44.5 45.6949 46.7323 49.4751 49.1706 45.5918Z" fill="#D8826C"/>
<path d="M39.414 42.1204C40.616 41.6049 41.5433 40.5739 41.9554 39.3024C41.9554 39.268 41.921 39.2337 41.921 39.1993C41.7493 36.9656 40.4786 34.2163 38.109 33.9414C38.4524 34.0101 38.7958 34.182 39.1049 34.4225C39.4827 34.5256 39.7574 34.8005 39.7574 35.1098C39.7574 35.1442 39.7574 35.1442 39.7574 35.1786C40.2039 35.8315 40.4443 36.6906 40.4443 37.6529C40.4443 39.7148 39.1736 41.3987 37.5938 41.3987C36.014 41.3987 34.7433 39.7148 34.7433 37.6529C34.7433 35.9346 35.6363 34.4569 36.8383 34.0445C36.7696 34.0789 36.6666 34.0789 36.5979 34.1132C34.5716 34.6974 34.0565 36.1064 33.0605 37.6185C33.0605 37.7216 33.0605 37.8247 33.0605 37.9622C33.0605 39.5086 33.8161 40.8832 35.0181 41.708C35.5332 41.5705 36.0827 41.4674 36.7009 41.4674C37.6968 41.4674 38.6584 41.708 39.414 42.1204Z" fill="white"/>
<path d="M36.8723 34.0799C35.6703 34.5266 34.7773 35.9699 34.7773 37.6882C34.7773 39.7501 36.048 41.434 37.6278 41.434C39.2076 41.434 40.4783 39.7501 40.4783 37.6882C40.4783 36.7603 40.2035 35.9012 39.7914 35.2139C39.7571 35.4888 39.4823 35.7294 39.1046 35.8325C39.448 36.3136 39.654 36.9665 39.654 37.6882C39.654 39.1659 38.7611 40.3687 37.6278 40.3687C36.5288 40.3687 35.6016 39.1659 35.6016 37.6882C35.6016 36.2105 36.4945 35.0077 37.6278 35.0077C37.6622 35.0077 37.6965 35.0077 37.6965 35.0077C37.7995 34.6641 38.2116 34.4235 38.7268 34.4235C38.8642 34.4235 38.9672 34.4579 39.1046 34.4579C38.7955 34.2173 38.4864 34.0455 38.1086 33.9768C37.7308 33.9424 37.3187 33.9768 36.8723 34.0799Z" fill="#7F5242"/>
<path d="M37.6992 35.1463C37.6992 35.1119 37.6992 35.0432 37.7336 35.0088C37.6992 35.0088 37.6649 35.0088 37.6649 35.0088C36.5659 35.0088 35.6387 36.2116 35.6387 37.6893C35.6387 39.167 36.5316 40.3698 37.6649 40.3698C38.7639 40.3698 39.6911 39.167 39.6911 37.6893C39.6911 36.9676 39.4851 36.3147 39.1417 35.8336C39.0386 35.8679 38.9013 35.8679 38.7982 35.8679C38.1457 35.8679 37.6992 35.5586 37.6992 35.1463Z" fill="#400404"/>
<path d="M39.7604 35.216C39.7604 35.1816 39.7604 35.1816 39.7604 35.1473C39.7604 34.838 39.4847 34.5631 39.1055 34.46C39.3468 34.6662 39.5881 34.9411 39.7604 35.216Z" fill="white"/>
<path d="M37.7012 35.008C38.2507 35.0424 38.7315 35.3517 39.0749 35.8328C39.4527 35.7297 39.7274 35.4892 39.7617 35.2142C39.5557 34.9393 39.3496 34.6644 39.1092 34.4582C39.0062 34.4238 38.8688 34.4238 38.7315 34.4238C38.2163 34.4238 37.8042 34.6988 37.7012 35.008Z" fill="white"/>
<path d="M37.6984 35.0088C37.6984 35.0432 37.6641 35.1119 37.6641 35.1463C37.6641 35.5586 38.1449 35.8679 38.6944 35.8679C38.8317 35.8679 38.9348 35.8679 39.0378 35.8336C38.7287 35.3524 38.2479 35.0432 37.6984 35.0088Z" fill="white"/>
<path d="M37.6301 33.4263C40.1372 33.4263 42.1634 35.4538 42.1634 37.9625C42.1634 38.4436 42.0947 38.8904 41.9573 39.3371C42.0604 39.4746 42.3008 39.4746 42.3351 39.234C42.6442 36.038 40.927 33.0826 37.5614 32.739C34.5736 32.4297 32.2383 35.1445 32.2383 37.9625C32.2383 38.2374 32.5817 38.3062 32.7534 38.1C32.8565 37.9281 32.9938 37.7907 33.0969 37.6189C33.2686 35.282 35.2261 33.4263 37.6301 33.4263Z" fill="#390A0A"/>
<path d="M36.633 34.116C36.7017 34.0817 36.8047 34.0817 36.8734 34.0473C37.1138 33.9442 37.3542 33.9098 37.629 33.9098C37.8007 33.9098 37.9724 33.9442 38.1098 33.9786C40.4794 34.2535 41.7501 37.0027 41.9218 39.2365C41.9218 39.2708 41.9218 39.3052 41.9562 39.3396C42.0936 38.8928 42.1622 38.4461 42.1622 37.9649C42.1622 35.4563 40.136 33.4287 37.629 33.4287C35.225 33.4287 33.2674 35.2844 33.0957 37.6213C34.0916 36.1092 34.6068 34.7002 36.633 34.116Z" fill="#390A0A"/>
<path d="M36.873 34.0789C37.3195 33.9758 37.7316 33.9414 38.1094 34.0101C37.9377 33.9758 37.8003 33.9414 37.6286 33.9414C37.3538 33.9414 37.1134 33.9758 36.873 34.0789Z" fill="#390A0A"/>
<path d="M39.8274 47.999C40.8234 47.3117 41.4759 46.3151 41.4759 45.181C41.4759 43.9095 40.6517 42.8098 39.4497 42.1225C38.9002 42.3631 38.282 42.5005 37.6295 42.5005C36.6679 42.5005 35.775 42.1913 35.0538 41.6758C33.2336 42.1913 31.9629 43.5659 31.9629 45.181C31.9629 47.243 34.0922 48.9269 36.7366 48.9269C37.9042 48.9269 38.9689 48.6176 39.7931 48.0677C39.7244 47.9646 39.6214 47.8615 39.5527 47.7585C39.5183 47.7585 39.6214 47.8615 39.8274 47.999Z" fill="#F08671"/>
<path d="M39.4185 42.1219C38.6286 41.7095 37.7014 41.4346 36.6711 41.4346C36.0873 41.4346 35.5378 41.5033 34.9883 41.6751C35.7095 42.1906 36.6024 42.4999 37.564 42.4999C38.2509 42.4999 38.869 42.3624 39.4185 42.1219Z" fill="#F08671"/>
<path d="M52.1569 47.8276C53.0155 48.5149 54.2175 48.9273 55.5569 48.9273C58.2013 48.9273 60.3305 47.2434 60.3305 45.1815C60.3305 43.6694 59.1629 42.3291 57.4801 41.7793C56.7589 42.226 55.9346 42.501 55.0074 42.501C54.2862 42.501 53.5993 42.3291 53.0155 42.0199C51.6761 42.6728 50.7832 43.8412 50.7832 45.1815C50.7832 46.2124 51.3327 47.1403 52.1569 47.8276C52.1569 47.7932 52.1569 47.7932 52.1913 47.7932C52.1913 47.7589 52.1913 47.7932 52.1569 47.8276Z" fill="#F08671"/>
<path d="M57.4783 41.7771C56.8944 41.5709 56.2419 41.4678 55.5551 41.4678C54.6278 41.4678 53.7349 41.674 53.0137 42.052C53.6318 42.3613 54.2844 42.5331 55.0056 42.5331C55.9328 42.4987 56.7914 42.2238 57.4783 41.7771Z" fill="#F08671"/>
<path d="M32.1016 32.1209C32.5137 31.9147 32.9258 31.7085 33.3036 31.5367C34.2995 30.8838 35.2611 30.1965 36.2227 29.4404C33.6127 30.0934 32.1016 32.1209 32.1016 32.1209Z" fill="#99360A"/>
<path d="M43.0237 31.2608C40.3107 29.2676 38.0097 29.0271 36.2238 29.4394C35.2622 30.1955 34.3006 30.8828 33.3047 31.5357C38.4218 29.4395 43.0237 31.2608 43.0237 31.2608Z" fill="#99360A"/>
<path d="M61.2235 32.1212C55.8316 26.176 50.7832 31.1933 50.7832 31.1933C56.5528 29.1314 61.2235 32.1212 61.2235 32.1212Z" fill="#99360A"/>
<path d="M52.1576 47.8258C52.1576 47.8258 52.1576 47.7915 52.1576 47.8258C46.5597 52.1559 41.1678 48.9599 39.8285 48.032C39.7941 48.0664 39.7598 48.0664 39.7598 48.1007C46.1476 55.9704 51.7111 48.4444 52.1576 47.8258Z" fill="#D5503B"/>
<path d="M39.5215 47.7568C39.5904 47.8599 39.6938 47.963 39.7628 48.0661C39.7973 48.0318 39.8317 48.0318 39.8317 47.9974C39.6249 47.8599 39.5215 47.7568 39.5215 47.7568Z" fill="#D5503B"/>
<path d="M52.1929 47.7568L52.1602 47.7908C52.1929 47.7908 52.1929 47.7568 52.1929 47.7568Z" fill="#D5503B"/>
<path d="M62.7705 32.4308C58.2372 30.5063 53.1545 30.1626 48.3464 31.9153C48.1747 31.984 48.003 32.1215 47.9 32.2589L46.1485 32.3277C46.0111 32.1902 45.8394 32.0527 45.6333 32.0184C40.3789 30.6094 34.7466 31.3998 29.6295 33.9085C28.6336 34.3896 29.1831 35.7642 30.076 35.7642C30.1447 35.7642 30.4538 35.6955 30.6598 35.8673C30.8659 36.0391 30.9346 36.4515 30.9346 36.5202C31.0376 38.6509 31.175 40.8503 32.1709 42.7404C33.1669 44.6648 35.2274 45.6614 37.2537 45.9707C40.791 46.4518 45.1869 45.1116 46.2172 41.297C46.8354 39.0289 46.6293 36.5546 46.4232 34.1834L47.8656 34.1147C47.9343 36.4515 48.0374 38.9258 48.9303 41.0908C50.407 44.6648 54.6655 45.2834 57.7221 44.2524C59.4392 43.7026 61.0533 42.4998 61.6715 40.6097C62.2897 38.7884 62.1523 36.7952 62.0149 34.8707C62.0149 34.802 62.0149 34.4239 62.1523 34.2521C62.2897 34.0803 62.5644 34.1147 62.5988 34.1147C63.3543 34.0803 63.6291 32.8088 62.7705 32.4308ZM44.7061 41.95C44.6717 41.9843 44.6717 42.0187 44.6717 42.0531C44.6374 42.1218 44.6031 42.1905 44.5687 42.2249C44.5687 42.1905 44.6031 42.1905 44.6031 42.1562C43.8475 43.4964 42.3021 44.1494 40.8597 44.493C39.3829 44.8367 37.8375 44.9054 36.3607 44.4586C34.6436 43.9432 33.4416 42.8435 32.8921 41.0908C32.2739 39.132 32.3083 36.967 32.1366 34.9394C34.5062 33.9772 37.0476 33.4617 39.5203 33.3586C41.5122 33.2899 43.3324 33.5992 45.2212 34.0459C45.496 37.2763 45.6333 40.0599 44.7061 41.95ZM60.8816 39.2007C60.6069 40.8503 59.714 42.0187 58.3059 42.7404C57.0696 43.3589 55.6958 43.5308 54.3221 43.4277C52.9827 43.3246 51.4716 42.9466 50.5787 41.7438C50.5444 41.7094 50.5444 41.675 50.51 41.6407C50.4757 41.6063 50.4757 41.5719 50.4414 41.5376C49.3424 39.8193 49.1363 37.0701 48.999 33.8741C49.0333 33.8397 49.0333 33.8397 49.0676 33.8054C50.7848 33.2212 52.4676 32.7744 54.2878 32.6713C56.5201 32.5682 58.7524 32.8431 60.8816 33.5305C60.9503 35.4205 61.1907 37.3794 60.8816 39.2007Z" fill="black"/>
<path d="M30.9337 35.6955C29.8004 36.1422 27.6711 36.9326 25.8509 37.6543C25.4388 37.2076 24.8893 36.6921 24.3398 36.2797C26.5721 35.1456 29.2509 34.0459 30.7276 33.4961C31.5862 34.0459 31.4832 34.802 30.9337 35.6955Z" fill="#020000"/>
</svg>
