<svg width="50" height="50" viewBox="0 0 50 50" fill="none" xmlns="http://www.w3.org/2000/svg">
<path fill-rule="evenodd" clip-rule="evenodd" d="M49.7647 24.8824C49.7647 38.6245 38.6245 49.7647 24.8824 49.7647C11.1402 49.7647 0 38.6245 0 24.8824C0 11.1402 11.1402 0 24.8824 0C38.6245 0 49.7647 11.1402 49.7647 24.8824ZM24.9113 39.8118C24.9113 39.8118 18.2317 29.8221 15.8673 24.2683C15.2658 22.9738 14.9297 21.5285 14.9297 20.004C14.9297 14.453 19.3858 9.95294 24.8827 9.95294C30.3795 9.95294 34.8356 14.453 34.8356 20.004C34.8356 21.2256 34.6198 22.3962 34.2247 23.4792H34.2353C32.6508 27.6929 24.9113 39.8118 24.9113 39.8118Z" fill="#6F6F6F"/>
<path fill-rule="evenodd" clip-rule="evenodd" d="M24.8821 25.7119C28.0886 25.7119 30.6879 23.1125 30.6879 19.906C30.6879 16.6995 28.0886 14.1001 24.8821 14.1001C21.6756 14.1001 19.0762 16.6995 19.0762 19.906C19.0762 23.1125 21.6756 25.7119 24.8821 25.7119Z" fill="#6F6F6F"/>
</svg>
